<svg width="868" height="734" viewBox="0 0 868 734" fill="none" xmlns="http://www.w3.org/2000/svg">
<g clip-path="url(#clip0_840_46)">
<rect width="868" height="734" fill="#F5F8FD"/>
<path d="M1062.94 44.0052L886.247 706.069L653.655 255.728L1062.94 44.0052Z" fill="#F1F5FC"/>
<path d="M1063.6 758.555L658 1361.34L551.25 627.722L1063.6 758.555Z" fill="#F1F5FC"/>
<path d="M430.136 304.723L250.18 216.272L393.544 107.923L430.136 304.723Z" fill="#B4C7EC" fill-opacity="0.06"/>
<path d="M340.992 765.526L-107.217 893.961L-77.8808 468.105L340.992 765.526Z" fill="#B4C7EC" fill-opacity="0.06"/>
<path d="M402.241 1309.01L-310.985 1172.15L-3.78325 656.271L402.241 1309.01Z" fill="#B4C7EC" fill-opacity="0.06"/>
<path d="M1033.85 242.664L772.383 232.099L881.792 4.95025L1033.85 242.664Z" fill="#B4C7EC" fill-opacity="0.06"/>
<path d="M694.104 -29.3316L638.486 33.8258L633.705 -78.1823L694.104 -29.3316Z" fill="#B4C7EC" fill-opacity="0.06"/>
<path d="M105.727 49.8047L48.6523 109.087L46.5402 -3.15775L105.727 49.8047Z" fill="#B4C7EC" fill-opacity="0.06"/>
<path d="M435.971 -51.8523L425.899 60.5419L374.017 -8.99604L435.971 -51.8523Z" fill="#F8F8F8"/>
<path d="M745.618 8.071L569.025 155.708L589.613 -164.159L745.618 8.071Z" fill="#F1F5FC"/>
<path d="M97.6115 453.352L-150.399 369.893L18.3162 182.538L97.6115 453.352Z" fill="#B4C7EC" fill-opacity="0.06"/>
</g>
<defs>
<clipPath id="clip0_840_46">
<rect width="868" height="734" fill="white"/>
</clipPath>
</defs>
</svg>
