<svg width="868" height="734" viewBox="0 0 868 734" fill="none" xmlns="http://www.w3.org/2000/svg">
<g clip-path="url(#clip0_834_2)">
<rect width="868" height="734" fill="#FCFCFC"/>
<path d="M992.774 443.641L878.901 600.37L782.487 419.127L992.774 443.641Z" fill="#F8F8F8"/>
<path d="M797.839 753.741L587.972 750.216L677.393 581.374L797.839 753.741Z" fill="#F8F8F8"/>
<path d="M391.093 362.333L193.728 277.105L352.658 164.601L391.093 362.333Z" fill="#F8F8F8"/>
<path d="M348.643 737.416L-79.8242 860.217L-50.2034 487.11L348.643 737.416Z" fill="#F8F8F8"/>
<path d="M167.962 446.983L-403.772 357.907L-153.537 -26.505L167.962 446.983Z" fill="#F8F8F8"/>
<path d="M920.835 317.502L710.968 313.978L800.389 145.136L920.835 317.502Z" fill="#F8F8F8"/>
<path d="M246.187 11.6969L142.152 99.9893L132.125 -58.8344L246.187 11.6969Z" fill="#F8F8F8"/>
<path d="M657.166 94.0476L599.25 143.2L593.668 54.7829L657.166 94.0476Z" fill="#F8F8F8"/>
</g>
<defs>
<clipPath id="clip0_834_2">
<rect width="868" height="734" fill="white"/>
</clipPath>
</defs>
</svg>
