<svg width="600" height="864" viewBox="0 0 600 864" fill="none" xmlns="http://www.w3.org/2000/svg">
<g clip-path="url(#clip0_887_40)">
<rect width="600" height="864" fill="#F5F8FD"/>
<path d="M1064.08 734.275L658.478 1337.06L551.728 603.442L1064.08 734.275Z" fill="#F1F5FC"/>
<path d="M430.614 280.443L250.658 191.991L394.021 83.6426L430.614 280.443Z" fill="#B4C7EC" fill-opacity="0.06"/>
<path d="M341.47 741.246L-106.74 869.68L-77.4033 443.824L341.47 741.246Z" fill="#B4C7EC" fill-opacity="0.06"/>
<path d="M402.719 1284.73L-310.507 1147.87L-3.30571 631.99L402.719 1284.73Z" fill="#B4C7EC" fill-opacity="0.06"/>
<path d="M106.205 25.5242L49.1298 84.8068L47.0177 -27.4383L106.205 25.5242Z" fill="#B4C7EC" fill-opacity="0.06"/>
<path d="M435.971 -51.8523L425.899 60.5419L374.017 -8.99604L435.971 -51.8523Z" fill="#F8F8F8"/>
<path d="M746.096 -16.2095L569.503 131.427L590.091 -188.44L746.096 -16.2095Z" fill="#F1F5FC"/>
<path d="M97.6115 453.352L-150.399 369.893L18.3162 182.538L97.6115 453.352Z" fill="#B4C7EC" fill-opacity="0.06"/>
</g>
<defs>
<clipPath id="clip0_887_40">
<rect width="600" height="864" fill="white"/>
</clipPath>
</defs>
</svg>
