<svg width="1424" height="900" viewBox="0 0 1424 900" fill="none" xmlns="http://www.w3.org/2000/svg">
<path d="M1508.32 553.565L1363.96 767.681L1244.31 523.633L1508.32 553.565Z" fill="#F0F0F0" fill-opacity="0.56"/>
<path d="M967.789 755.858L704.135 754.356L817.868 524.211L967.789 755.858Z" fill="#F0F0F0" fill-opacity="0.56"/>
<path d="M451.494 330.424L204.216 218.034L404.82 63.133L451.494 330.424Z" fill="#F0F0F0" fill-opacity="0.56"/>
<path d="M471.679 817.473L-67.6617 990.529L-27.3934 484.573L471.679 817.473Z" fill="#F0F0F0" fill-opacity="0.56"/>
<path d="M388.427 1351.78L-329.185 1240.02L-11.6391 715.307L388.427 1351.78Z" fill="#F0F0F0" fill-opacity="0.56"/>
<path d="M1117.44 261.426L853.784 259.923L967.517 29.7786L1117.44 261.426Z" fill="#F0F0F0" fill-opacity="0.56"/>
<path d="M295.5 126.5C295.5 130.286 292.224 133.5 288 133.5C283.776 133.5 280.5 130.286 280.5 126.5C280.5 122.714 283.776 119.5 288 119.5C292.224 119.5 295.5 122.714 295.5 126.5Z" fill="#F5F8FD" stroke="#130A7C" stroke-width="3"/>
<circle cx="603.5" cy="467.5" r="10" fill="#F5F8FD" stroke="#89B3FF" stroke-width="3"/>
<circle cx="179" cy="764" r="8.5" fill="#F2F4F6" stroke="#FF665B" stroke-width="3"/>
<path d="M1235.17 125.66L1213.1 150.069L1203 118.748L1235.17 125.66Z" fill="#F5F8FD"/>
<path d="M1205.22 120.76L1232.32 126.581L1213.73 147.135L1205.22 120.76Z" stroke="#FF847B" stroke-opacity="0.65" stroke-width="3"/>
<ellipse cx="101.119" cy="435.099" rx="7" ry="7" transform="rotate(-179.183 101.119 435.099)" fill="#D98547"/>
<ellipse cx="101.132" cy="471.099" rx="7" ry="7" transform="rotate(-179.183 101.132 471.099)" fill="#D98547"/>
<ellipse cx="101.126" cy="453.099" rx="7" ry="7" transform="rotate(-179.183 101.126 453.099)" fill="#D98547"/>
<ellipse cx="101.106" cy="399.099" rx="7" ry="7" transform="rotate(-179.183 101.106 399.099)" fill="#D98547"/>
<ellipse cx="101.099" cy="381.099" rx="7" ry="7" transform="rotate(-179.183 101.099 381.099)" fill="#D98547"/>
<ellipse cx="101.113" cy="417.099" rx="7" ry="7" transform="rotate(-179.183 101.113 417.099)" fill="#D98547"/>
<ellipse cx="101.139" cy="489.099" rx="7" ry="7" transform="rotate(-179.183 101.139 489.099)" fill="#D98547"/>
<path d="M151.384 17.11L78.2146 84.6057L71.9249 -35.0963L151.384 17.11Z" fill="#F0F0F0" fill-opacity="0.56"/>
</svg>
