<svg width="1424" height="900" viewBox="0 0 1424 900" fill="none" xmlns="http://www.w3.org/2000/svg">
<path d="M1389.3 116.287L1190.59 735.759L918.545 307.834L1389.3 116.287Z" fill="#F1F5FC"/>
<path d="M1653.98 604.857L1190.57 1164.32L1061.55 472.271L1653.98 604.857Z" fill="#F1F5FC"/>
<path d="M1612.32 587.448L1467.96 801.564L1348.31 557.516L1612.32 587.448Z" fill="#F1F5FC"/>
<path d="M1071.79 789.742L808.135 788.239L921.867 558.095L1071.79 789.742Z" fill="#B4C7EC" fill-opacity="0.06"/>
<path d="M555.493 364.307L308.216 251.917L508.819 97.0163L555.493 364.307Z" fill="#B4C7EC" fill-opacity="0.06"/>
<path d="M575.678 851.357L36.3378 1024.41L76.6062 518.457L575.678 851.357Z" fill="#B4C7EC" fill-opacity="0.06"/>
<path d="M492.427 1385.67L-225.185 1273.9L92.3609 749.191L492.427 1385.67Z" fill="#B4C7EC" fill-opacity="0.06"/>
<path d="M1221.44 295.309L957.783 293.807L1071.52 63.6622L1221.44 295.309Z" fill="#B4C7EC" fill-opacity="0.06"/>
<path d="M255.866 -15.0394L182.697 52.4563L176.407 -67.2457L255.866 -15.0394Z" fill="#B4C7EC" fill-opacity="0.06"/>
<circle cx="943" cy="175" r="9" fill="#F5F8FD"/>
<circle cx="943" cy="175" r="7.5" stroke="#130A7C" stroke-opacity="0.93" stroke-width="3"/>
<circle cx="289" cy="766" r="10" fill="#F1F5FC"/>
<circle cx="289" cy="766" r="8.5" stroke="#FEC5C1" stroke-opacity="0.58" stroke-width="3"/>
<ellipse cx="1127" cy="496.5" rx="184" ry="187.5" fill="#F8F8F8"/>
<ellipse cx="896" cy="406.5" rx="184" ry="187.5" fill="#F8F8F8"/>
<path d="M163.691 77.5983L182.556 75.5183L174.925 92.8953L163.691 77.5983Z" fill="#F5F8FD" stroke="#003469" stroke-width="3"/>
<path d="M152.747 85.674L171.611 83.594L163.98 100.971L152.747 85.674Z" fill="#6695C5" fill-opacity="0.09" stroke="#6695C5" stroke-width="3"/>
<path d="M1107.44 719.188L1107.38 728.677L1091 719.083L1107.5 709.699L1107.44 719.188Z" fill="#F5F8FD" stroke="#054B69" stroke-width="3"/>
<path d="M1087 711.083L1103.5 701.699L1103.38 720.677L1087 711.083Z" fill="#6695C5" fill-opacity="0.09" stroke="#0099CC" stroke-width="3"/>
<circle cx="1370" cy="467" r="7" fill="#4949F2"/>
<circle cx="1370" cy="467" r="7" fill="#1F5CCF"/>
<circle cx="1370" cy="431" r="7" fill="#1F5CCF"/>
<circle cx="1370" cy="449" r="7" fill="#1F5CCF"/>
<circle cx="1370" cy="503" r="7" fill="#1F5CCF"/>
<circle cx="1370" cy="521" r="7" fill="#1F5CCF"/>
<circle cx="1370" cy="485" r="7" fill="#1F5CCF"/>
<circle cx="1370" cy="413" r="7" fill="#1F5CCF"/>
</svg>
