<svg width="1424" height="900" viewBox="0 0 1424 900" fill="none" xmlns="http://www.w3.org/2000/svg">
<path d="M1416.3 186.286L1217.59 805.759L945.545 377.833L1416.3 186.286Z" fill="#F8F9FB"/>
<path d="M1680.98 674.856L1217.57 1234.32L1088.55 542.27L1680.98 674.856Z" fill="#F8F9FB"/>
<path d="M1639.32 657.448L1494.96 871.564L1375.31 627.516L1639.32 657.448Z" fill="#F4F5F7"/>
<path d="M1098.79 859.742L835.135 858.239L948.867 628.095L1098.79 859.742Z" fill="#B4C7EC" fill-opacity="0.06"/>
<path d="M582.493 434.307L335.216 321.917L535.819 167.016L582.493 434.307Z" fill="#B4C7EC" fill-opacity="0.06"/>
<path d="M602.678 921.357L63.3378 1094.41L103.606 588.457L602.678 921.357Z" fill="#B4C7EC" fill-opacity="0.06"/>
<path d="M519.426 1455.67L-198.186 1343.9L119.36 819.191L519.426 1455.67Z" fill="#B4C7EC" fill-opacity="0.06"/>
<path d="M1248.44 365.309L984.783 363.807L1098.52 133.662L1248.44 365.309Z" fill="#B4C7EC" fill-opacity="0.06"/>
<path d="M282.866 54.9606L209.697 122.456L203.407 2.75426L282.866 54.9606Z" fill="#B4C7EC" fill-opacity="0.06"/>
<path d="M1342.79 801.4L1346.13 810.282L1327.41 807.183L1339.45 792.517L1342.79 801.4Z" fill="#F5F8FD" stroke="#824D24" stroke-width="3"/>
<path d="M1320.81 801.144L1332.85 786.478L1339.53 804.243L1320.81 801.144Z" fill="#6695C5" fill-opacity="0.09" stroke="#DE8643" stroke-width="3"/>
<path d="M337.222 73.482L330.906 66.4001L349.488 62.5419L343.538 80.5638L337.222 73.482Z" fill="#F5F8FD" stroke="#C53733" stroke-width="3"/>
<path d="M339.428 68.5924L333.497 86.6207L320.85 72.4706L339.428 68.5924Z" fill="#6695C5" fill-opacity="0.09" stroke="#FF807C" stroke-width="3"/>
<circle cx="147" cy="829.545" r="8.5" fill="#F8F9FB" stroke="#0099CC" stroke-width="3"/>
<ellipse cx="1241" cy="123.045" rx="9" ry="8.5" fill="#FCFCFC"/>
<path d="M1248.5 123.045C1248.5 126.831 1245.22 130.045 1241 130.045C1236.78 130.045 1233.5 126.831 1233.5 123.045C1233.5 119.259 1236.78 116.045 1241 116.045C1245.22 116.045 1248.5 119.259 1248.5 123.045Z" stroke="#130A7C" stroke-opacity="0.86" stroke-width="3"/>
</svg>
