<svg width="1424" height="900" viewBox="0 0 1424 900" fill="none" xmlns="http://www.w3.org/2000/svg">
<path d="M1426.3 27.2864L1227.59 646.759L955.545 218.833L1426.3 27.2864Z" fill="#F8F9FB"/>
<path d="M1690.98 515.856L1227.57 1075.32L1098.55 383.27L1690.98 515.856Z" fill="#F8F9FB"/>
<path d="M1613.32 516.901L1468.97 731.017L1349.32 486.969L1613.32 516.901Z" fill="#F4F5F7"/>
<path d="M1128.14 641.195L884.538 742.061L900.114 485.821L1128.14 641.195Z" fill="#B4C7EC" fill-opacity="0.06"/>
<path d="M592.493 275.308L345.216 162.917L545.819 8.01677L592.493 275.308Z" fill="#B4C7EC" fill-opacity="0.06"/>
<path d="M612.678 762.357L73.3378 935.413L113.606 429.457L612.678 762.357Z" fill="#B4C7EC" fill-opacity="0.06"/>
<path d="M529.426 1296.67L-188.186 1184.9L129.36 660.191L529.426 1296.67Z" fill="#B4C7EC" fill-opacity="0.06"/>
<path d="M1258.44 206.31L994.784 204.807L1108.52 -25.3373L1258.44 206.31Z" fill="#B4C7EC" fill-opacity="0.06"/>
</svg>
