<svg width="1424" height="900" viewBox="0 0 1424 900" fill="none" xmlns="http://www.w3.org/2000/svg">
<path d="M1179.7 -90.5831L977.031 45.0064L998.262 -255.487L1179.7 -90.5831Z" fill="#F5F5F5"/>
<path d="M1474.3 268.287L1275.59 887.759L1003.54 459.834L1474.3 268.287Z" fill="#F8F8F8"/>
<path d="M1738.98 756.857L1275.57 1316.32L1146.55 624.271L1738.98 756.857Z" fill="#F8F8F8"/>
<path d="M1156.79 941.742L893.135 940.24L1006.87 710.095L1156.79 941.742Z" fill="#B4C7EC" fill-opacity="0.06"/>
<path d="M640.493 516.308L393.216 403.917L593.819 249.017L640.493 516.308Z" fill="#B4C7EC" fill-opacity="0.06"/>
<path d="M660.678 1003.36L121.338 1176.41L161.606 670.457L660.678 1003.36Z" fill="#B4C7EC" fill-opacity="0.06"/>
<path d="M1306.44 447.309L1042.78 445.807L1156.52 215.662L1306.44 447.309Z" fill="#B4C7EC" fill-opacity="0.06"/>
<path d="M340.866 136.961L267.697 204.457L261.407 84.7545L340.866 136.961Z" fill="#B4C7EC" fill-opacity="0.06"/>
<path d="M1154.52 214.809C1154.52 218.409 1151.45 221.435 1147.54 221.435C1143.63 221.435 1140.56 218.409 1140.56 214.809C1140.56 211.209 1143.63 208.183 1147.54 208.183C1151.45 208.183 1154.52 211.209 1154.52 214.809Z" fill="#FCFCFC" stroke="#130A7C" stroke-width="3"/>
<path d="M1228.92 812.307C1228.92 817.572 1224.72 821.801 1219.59 821.801C1214.46 821.801 1210.26 817.572 1210.26 812.307C1210.26 807.043 1214.46 802.813 1219.59 802.813C1224.72 802.813 1228.92 807.043 1228.92 812.307Z" fill="#F8F8F8" stroke="#89B3FF" stroke-width="3"/>
<path d="M272.959 713.362C272.959 717.834 269.393 721.422 265.041 721.422C260.689 721.422 257.123 717.834 257.123 713.362C257.123 708.889 260.689 705.302 265.041 705.302C269.393 705.302 272.959 708.889 272.959 713.362Z" fill="#FDFDFD" stroke="#FFA9A3" stroke-width="3"/>
<path d="M261.125 66.7839L278.63 64.8247L271.549 81.1923L261.125 66.7839Z" fill="#F5F8FD" stroke="#7E84CA" stroke-width="3"/>
<path d="M250.817 74.5043L268.322 72.5452L261.241 88.9128L250.817 74.5043Z" fill="#6695C5" fill-opacity="0.09" stroke="#414AB5" stroke-width="3"/>
</svg>
